<svg width="17" height="17" viewBox="0 0 17 17" fill="none" xmlns="http://www.w3.org/2000/svg">
<path opacity="0.3" d="M3.43799 12.7336V13.3469H4.05132L10.0913 7.30691L9.47799 6.69357L3.43799 12.7336Z" fill="#0061F4"/>
<path d="M13.9114 5.37357C14.1714 5.11357 14.1714 4.69357 13.9114 4.43357L12.3514 2.87357C12.2181 2.74024 12.0514 2.68024 11.8781 2.68024C11.7047 2.68024 11.5381 2.7469 11.4114 2.87357L10.1914 4.09357L12.6914 6.59357L13.9114 5.37357V5.37357ZM2.10474 12.1802V14.6802H4.60474L11.9781 7.3069L9.47807 4.8069L2.10474 12.1802ZM4.0514 13.3469H3.43807V12.7336L9.47807 6.69357L10.0914 7.3069L4.0514 13.3469Z" fill="#1A75FF"/>
</svg>
