<svg width="25" height="25" viewBox="0 0 25 25" fill="none" xmlns="http://www.w3.org/2000/svg">
<g clip-path="url(#clip0_121_33)">
<path d="M16.187 14.1247H15.397L15.117 13.8547C16.097 12.7147 16.687 11.2347 16.687 9.62469C16.687 6.03469 13.777 3.12469 10.187 3.12469C6.59701 3.12469 3.68701 6.03469 3.68701 9.62469C3.68701 13.2147 6.59701 16.1247 10.187 16.1247C11.797 16.1247 13.277 15.5347 14.417 14.5547L14.687 14.8347V15.6247L19.687 20.6147L21.177 19.1247L16.187 14.1247ZM10.187 14.1247C7.69701 14.1247 5.68701 12.1147 5.68701 9.62469C5.68701 7.1347 7.69701 5.12469 10.187 5.12469C12.677 5.12469 14.687 7.1347 14.687 9.62469C14.687 12.1147 12.677 14.1247 10.187 14.1247Z" fill="#1A75FF"/>
</g>
<defs>
<clipPath id="clip0_121_33">
<rect width="24" height="24" fill="white" transform="translate(0.687012 0.124695)"/>
</clipPath>
</defs>
</svg>
